<?xml version="1.0" encoding="utf-8"?>
<!-- Generator: Adobe Illustrator 26.5.0, SVG Export Plug-In . SVG Version: 6.00 Build 0)  -->
<svg version="1.1" id="Ebene_1" xmlns="http://www.w3.org/2000/svg" xmlns:xlink="http://www.w3.org/1999/xlink" x="0px" y="0px"
	width='94' height='25' viewBox="0 0 94.4 25" style="enable-background:new 0 0 94.4 25;" xml:space="preserve">
<style type="text/css">
	.st0{fill:#FFFFFF;}
</style>
<g>
	<g>
		<path class="st0" d="M10.4,0H0v24.8L10.4,0z"/>
		<path class="st0" d="M17.7,0h10.4v24.8L17.7,0z"/>
		<path class="st0" d="M14.1,9.2L20.7,25h-4.3l-1.9-5H9.5L14.1,9.2z"/>
	</g>
	<g>
		<path class="st0" d="M45.1,15.8l1.2,3.5c0,0.2,0.2,0.2,0.2,0.2H49c0.2,0,0.2,0,0.2-0.2L44.3,5.7c0-0.2,0-0.2-0.2-0.2h-3
			c0,0-0.2,0-0.2,0.2c0,0.7-0.2,0.9-0.2,1.2l-4.3,12.3c0,0.2,0,0.2,0.2,0.2h2.1c0.2,0,0.2,0,0.2-0.2l1.2-3.5H45.1z M40.8,13.5
			c0.7-1.9,1.6-4.3,1.7-5.7l0,0c0.3,1.6,1.4,4.3,1.9,5.7H40.8z"/>
		<path class="st0" d="M55.4,19.6c1.2,0,2.6-0.2,4-0.9c0.2,0,0.2-0.2,0.2-0.2c0-0.3-0.2-0.9-0.2-1.4V4.5c0,0,0-0.2-0.2-0.2h-2.3
			c-0.2,0-0.2,0-0.2,0.2v4.3c-0.3,0-0.7,0-0.9,0c-3.6,0-5.9,2.4-5.9,5.6C49.8,17.9,52.3,19.6,55.4,19.6z M56.8,17.4
			c-0.3,0.2-0.9,0.2-1.2,0.2c-1.7,0-3.1-0.9-3.1-3.3c0-2.1,1.4-3.3,3.3-3.3c0.3,0,0.7,0,1,0.2V17.4z"/>
		<path class="st0" d="M66.8,8.9c-3.1,0-5.2,2.4-5.2,5.4c0,2.6,1.6,5.4,5,5.4c3,0,5-2.3,5-5.4C71.7,11.3,70,8.9,66.8,8.9z
			 M66.7,10.9c1.7,0,2.6,1.6,2.6,3.3c0,2.1-1,3.3-2.4,3.3c-1.6,0-2.6-1.4-2.6-3.3S65.3,10.9,66.7,10.9z"/>
		<path class="st0" d="M74.1,4.5C74.1,4.5,74,4.5,74.1,4.5L74,19.1c0,0,0,0.2,0.2,0.2c1,0.3,2.1,0.5,3.1,0.5c3.1,0,6.2-1.9,6.2-5.9
			c0-2.8-1.9-5-5-5c-0.7,0-1.4,0.2-1.9,0.3V4.7c0-0.2,0-0.2-0.2-0.2H74.1z M80.9,14.1c0,2.3-1.6,3.5-3.3,3.5c-0.3,0-0.7,0-1-0.2
			v-6.1c0.3-0.2,0.7-0.2,1.4-0.2C79.7,11.1,80.9,12.2,80.9,14.1z"/>
		<path class="st0" d="M92,14.9c1,0,1.9,0,2.1-0.2c0.2,0,0.2,0,0.2-0.2s0.2-0.7,0.2-1.2c0-2.1-1.2-4.5-4.3-4.5c-3.1,0-5,2.6-5,5.6
			c0,2.6,1.4,5.4,5.2,5.4c1.4,0,2.4-0.2,3.1-0.7l0.2-0.2v-1.7c0-0.2,0-0.2-0.2,0c-0.9,0.3-1.7,0.5-2.6,0.5c-2.1,0-3.1-1.2-3.1-2.6
			H92V14.9z M87.8,13c0.2-1,0.9-2.1,2.3-2.1c1.6,0,2.1,1.4,2.1,1.9V13c-0.2,0-0.3,0-1.2,0H87.8z"/>
	</g>
</g>
</svg>
