<svg width="140" height="24" viewBox="0 0 140 24" fill="none" xmlns="http://www.w3.org/2000/svg">
<path fill-rule="evenodd" clip-rule="evenodd" d="M8.49032 7.55555L8.58064 7.64444L8.67097 7.73333V7.64444C8.76129 7.46666 8.76129 7.37777 8.58064 7.2C8.30968 7.02222 7.49677 6.57777 7.31613 6.39999L7.04516 6.22222C6.95484 6.04444 7.04516 5.68888 7.49677 5.59999C7.94839 5.51111 11.7419 5.15555 13.6387 5.33333C12.1935 3.91111 10.2065 3.02222 8.03871 3.02222C3.6129 3.02222 0 6.66666 0 11.2C0 13.3333 0.812903 15.2 2.07742 16.7111C3.34194 14.9333 7.22581 9.33333 7.49677 8.97777C7.49677 8.88888 8.30968 7.82222 8.49032 7.55555ZM13.729 8.17777C13.729 8.17777 12.1935 9.6 11.1097 10.5778C10.0258 11.5556 6.50323 14.5778 5.87097 15.1111C5.32903 15.5556 3.52258 16.8889 2.8 17.5111C4.15484 18.7556 6.05161 19.4667 7.94839 19.4667C12.3742 19.4667 15.9871 15.8222 15.9871 11.2889C15.9871 9.77777 15.6258 8.35555 14.9032 7.11111C14.6323 7.28888 14.271 7.73333 13.729 8.17777ZM1.62581 17.2444C1.53548 17.4222 1.26452 17.7778 1.53548 18.0444C1.80645 18.3111 2.25806 17.9556 2.43871 17.7778C2.43871 17.7778 2.61935 17.6889 2.8 17.5111L1.9871 16.7111C1.80645 16.9778 1.62581 17.1556 1.62581 17.2444ZM15.3548 6.31111C15.4452 6.04444 15.5355 5.42222 13.9097 5.24444H13.5484C14.0903 5.77777 14.5419 6.31111 14.9032 7.02222C15.0839 6.75555 15.2645 6.48888 15.3548 6.31111ZM41.0968 7.99999C39.7419 7.99999 38.5677 8.26666 37.6645 8.71111H37.5742V22.4889H37.6645C38.929 22.4889 39.9226 21.4222 39.9226 20.1778V18.4C40.2839 18.4889 40.7355 18.5778 41.2774 18.5778C43.8968 18.5778 45.6129 16.4444 45.6129 13.1556C45.7032 9.95555 43.9871 7.99999 41.0968 7.99999ZM40.9161 16.9778C40.5548 16.9778 40.2839 16.9778 40.1032 16.8889V9.77777C40.3742 9.68888 40.7355 9.6 41.0968 9.6C42.7226 9.6 43.3548 10.7556 43.3548 13.2444C43.3548 14.9333 42.9032 16.9778 40.9161 16.9778ZM32.9677 14.8444L31.1613 7.99999H28.5419L31.7032 17.7778L30.0774 22.4889H30.8903C31.9742 22.4889 32.7871 21.8667 33.0581 20.9778L37.2129 7.99999H34.9548L32.9677 14.8444ZM109.29 8.44444C108.748 8.44444 108.206 8.53333 107.755 8.71111V4.44444H107.665C106.4 4.44444 105.406 5.51111 105.406 6.84444V18.3111C106.129 18.4889 107.935 18.5778 108.658 18.5778H109.11C112 18.5778 113.626 16.8 113.626 13.6889C113.626 10.3111 111.819 8.44444 109.29 8.44444ZM108.929 17.0667C108.568 17.0667 108.026 17.0667 107.755 16.9778V9.86666C108.026 9.77777 108.387 9.68888 108.748 9.68888C110.735 9.68888 111.368 11.3778 111.368 13.5111C111.458 15.8222 110.645 17.0667 108.929 17.0667ZM25.5613 6.84444V10.3111H21.3161V4.44444C19.9613 4.44444 18.7871 5.59999 18.7871 6.93333V18.4C20.1419 18.4 21.3161 17.2444 21.3161 15.8222V12.1778H25.5613V18.4H27.9097V4.44444C26.6452 4.44444 25.5613 5.51111 25.5613 6.84444ZM136.297 12.8889L139.368 8.26666H137.11L134.129 12.8V4.44444C132.774 4.44444 131.781 5.51111 131.781 6.84444V18.4C133.135 18.4 134.129 17.3333 134.129 16V13.2444L137.381 18.4H139.91L136.297 12.8889ZM117.961 7.99999C116.426 7.99999 115.161 8.44444 114.529 8.79999V10.4889C115.613 9.95555 116.606 9.51111 117.51 9.51111C118.684 9.51111 119.497 9.86666 119.497 11.2V11.9111C116.426 12.1778 113.897 12.8 113.897 15.5556C113.897 17.5111 115.252 18.6667 117.961 18.6667H118.503C119.406 18.6667 121.032 18.4889 121.665 18.4V11.8222C121.755 9.06666 120.039 7.99999 117.961 7.99999ZM119.587 17.1556C119.316 17.2444 118.774 17.2444 118.232 17.2444C116.968 17.2444 116.155 16.7111 116.155 15.3778C116.155 13.6889 117.419 13.2444 119.587 12.9778V17.1556ZM126.723 7.99999C125.548 7.99999 123.832 8.26666 122.839 8.79999V18.4H125.277V9.86666C125.639 9.68888 126 9.6 126.632 9.6C127.987 9.6 128.258 10.4 128.258 11.1111V16C128.258 17.2444 129.342 18.4 130.606 18.4H130.697V11.1111C130.606 9.95555 130.065 7.99999 126.723 7.99999ZM67.8323 7.99999C65.1226 7.99999 63.4968 10.0444 63.4968 13.2444C63.4968 16.5333 65.3032 18.5778 68.1936 18.5778C69.8194 18.5778 70.9935 18.1333 71.6258 17.8667V15.8222C70.9935 16.2667 70.1806 16.8 68.4645 16.8C66.929 16.8 66.1161 15.9111 65.9355 14.2222L71.9871 13.3333V12.9778C71.9871 9.77777 70.5419 7.99999 67.8323 7.99999ZM65.7548 12.4444C65.7548 10.5778 66.3871 9.6 67.7419 9.6H67.8323C68.4645 9.6 69.729 9.86666 69.8194 11.9111L65.7548 12.4444ZM87.6129 4.44444C86.8903 4.44444 86.3484 4.97777 86.3484 5.68888C86.3484 6.39999 86.8903 6.93333 87.6129 6.93333C88.3355 6.93333 88.9677 6.39999 88.9677 5.68888C88.9677 4.97777 88.3355 4.44444 87.6129 4.44444ZM102.245 12.4444C101.342 12.0889 100.8 11.6444 100.8 10.8444C100.8 10.1333 101.342 9.6 102.245 9.6C102.968 9.6 103.51 9.86666 104.142 10.5778V8.71111C103.51 8.26666 102.877 7.99999 101.794 7.99999C99.8968 7.99999 98.6323 9.33333 98.6323 10.9333C98.6323 12 99.0839 13.0667 100.89 13.7778C101.884 14.2222 102.335 14.5778 102.335 15.4667C102.335 16.2667 101.703 16.8 100.8 16.8C99.9871 16.8 99.0839 16.5333 98.3613 15.7333V17.7778C98.9032 18.1333 99.8968 18.4889 101.071 18.4889C103.239 18.4889 104.594 17.0667 104.594 15.3778C104.684 14.3111 104.142 13.2444 102.245 12.4444ZM77.6774 8.08888C77.2258 8 76.6839 7.99999 76.3226 7.99999C74.6968 7.99999 73.7935 8.35555 72.8 8.79999V18.4H72.8903C74.1548 18.4 75.1484 17.3333 75.1484 16.0889V9.95555C75.6 9.68888 76.7742 9.51111 77.5871 10.1333V8.08888H77.6774ZM81.6516 7.99999C78.9419 7.99999 77.3161 10.0444 77.3161 13.2444C77.3161 16.5333 79.1226 18.5778 82.0129 18.5778C83.6387 18.5778 84.8129 18.1333 85.4452 17.8667V15.8222C84.8129 16.2667 84 16.8 82.2839 16.8C80.7484 16.8 79.9355 15.9111 79.7548 14.2222L85.8064 13.3333V12.9778C85.7161 9.77777 84.271 7.99999 81.6516 7.99999ZM79.5742 12.4444C79.5742 10.5778 80.2065 9.6 81.5613 9.6H81.6516C82.2839 9.6 83.5484 9.86666 83.6387 11.9111L79.5742 12.4444ZM86.4387 16.0889C86.4387 17.3333 87.4323 18.4 88.6968 18.4H88.7871V7.99999H86.3484V16.0889H86.4387ZM93.7548 7.99999C92.5806 7.99999 90.8645 8.26666 89.871 8.79999V18.4H92.3097V9.86666C92.671 9.68888 93.0322 9.6 93.6645 9.6C95.0193 9.6 95.2903 10.4 95.2903 11.1111V16C95.2903 17.2444 96.3742 18.4 97.6387 18.4H97.729V11.1111C97.729 9.95555 97.1871 7.99999 93.7548 7.99999ZM50.7613 7.99999C47.9613 7.99999 46.3355 10.0444 46.3355 13.2444C46.3355 16.4444 48.0516 18.4889 50.7613 18.4889C53.471 18.4889 55.1871 16.4444 55.1871 13.2444C55.0968 10.0444 53.471 7.99999 50.7613 7.99999ZM50.7613 16.8C48.7742 16.8 48.5935 14.1333 48.5935 13.2444C48.5935 12.4444 48.7742 9.6 50.7613 9.6C52.6581 9.6 52.929 12.1778 52.929 13.2444C52.8387 14.0444 52.7484 16.8 50.7613 16.8ZM64.2194 4.44444C63.1355 4.44444 62.1419 5.15555 61.871 6.13333L59.3419 15.2889L56.3613 4.44444H53.7419L58.0774 18.4H58.7097C59.7032 18.4 60.6968 17.6889 60.9677 16.8L64.7613 4.44444H64.2194Z" fill="white"/>
</svg>
