<svg width="100" height="17" viewBox="0 0 100 17" fill="none" xmlns="http://www.w3.org/2000/svg">
<g clip-path="url(#clip0)">
<path d="M18.063 16.1243C18.2663 16.1713 18.264 16.4073 18.0458 16.4296C13.9776 16.8208 11.5996 16.1936 9.90204 14.4159C9.47649 13.9731 5.46905 9.26064 5.46905 9.26064C5.22621 8.96339 4.99826 8.71712 4.86768 8.50406H4.83045C4.84076 8.71253 4.84935 8.85629 4.84935 9.04014V16.2692H1.03549V2.24461C1.03549 1.32193 0.62942 1.04415 0.113956 0.807608C-0.00689116 0.751479 0.0143001 0.578513 0.174667 0.578513H3.57959C4.28062 0.578513 4.84878 1.14724 4.84878 1.84655V6.98115C4.84878 7.2028 4.84019 7.42903 4.82988 7.64438H4.8671C5.0143 7.46167 5.18211 7.27897 5.46848 7.00005L12.0349 0.579085H15.9261L8.73251 7.40784C8.73251 7.40784 13.2434 12.7406 14.5063 14.0189C15.654 15.1822 16.7073 15.8271 18.063 16.1243ZM25.469 0.00634766C31.0693 0.00634766 34.662 3.69249 34.662 8.42616C34.662 13.1547 30.76 16.8425 25.469 16.8425C19.8671 16.8425 16.2715 13.1547 16.2715 8.42616C16.2715 3.69249 20.1764 0.00634766 25.469 0.00634766ZM25.469 15.2372C28.6243 15.2372 30.4255 12.3929 30.4255 8.22456C30.4255 4.69592 28.6243 1.60944 25.469 1.60944C22.3121 1.60944 20.5097 4.56362 20.5097 8.62261C20.5097 12.1495 22.3121 15.2372 25.469 15.2372ZM92.961 16.2692V16.2687H89.0744L87.4873 6.38836C87.398 5.79558 87.3212 5.20623 87.2737 4.81964H87.2525C87.1391 5.14151 86.9747 5.56305 86.7267 6.16385L82.4455 16.2687H81.1912L76.9598 6.33796C76.7416 5.83338 76.5469 5.34484 76.3957 4.93647H76.3768C76.3482 5.24747 76.2611 5.86259 76.1861 6.36775L74.6534 16.2692H72.2244L74.5274 2.23143C74.6666 1.35056 74.3367 1.01723 73.8785 0.807608C73.7565 0.751479 73.7754 0.578513 73.9381 0.578513H77.3075C78.0165 0.578513 78.5841 1.02525 78.831 1.59569H78.8338L82.2279 9.56019C82.3831 9.91986 82.4953 10.2125 82.5744 10.4594H82.595C82.6786 10.2246 82.792 9.91242 82.9707 9.51093L86.8184 0.578513H89.0148C89.8361 0.578513 90.4959 1.2343 90.6156 1.95136L92.961 16.2692ZM98.7262 0.578513C99.426 0.578513 99.9942 1.14724 99.9942 1.84713V16.2692H96.0268V2.24461C96.0268 1.32193 95.6219 1.04415 95.1065 0.807608C94.9839 0.751479 95.0011 0.578513 95.1666 0.578513H98.7262ZM49.8688 0.578513H52.4352V15.0006C52.4352 15.7005 51.8682 16.2698 51.1672 16.2698H49.8195L41.725 6.86202C41.1981 6.25205 40.5452 5.40898 40.0727 4.77153H40.036C40.0521 5.22112 40.0727 5.63922 40.0727 6.18161V16.2698H37.5086V2.24518C37.5086 1.3225 37.1053 1.04472 36.587 0.80818C36.4656 0.752052 36.4845 0.579085 36.6449 0.579085H40.0727C41.0406 0.580231 41.4633 0.81219 41.9925 1.417L48.7371 9.21654C49.2302 9.79673 49.5664 10.2332 49.8688 10.6581H49.9083C49.89 10.2641 49.8688 9.98745 49.8688 9.54873V0.578513ZM66.8969 16.2692L65.2978 12.6553H58.1769L56.5366 16.2692H53.6202L60.2164 2.15927C60.4816 1.59569 60.2285 0.989738 59.8636 0.807608C59.7434 0.74747 59.7582 0.578513 59.9238 0.578513H62.9049C63.6099 0.578513 64.1483 1.01265 64.3986 1.54587L71.2176 16.2692H66.8969ZM59.0372 10.7578V10.7584H64.4558L62.0635 5.3603C61.9501 5.09512 61.8464 4.85629 61.7983 4.69879H61.7588C61.7216 4.83109 61.6145 5.07622 61.4936 5.34999L59.0372 10.7578Z" fill="white"/>
</g>
<defs>
<clipPath id="clip0">
<rect width="100" height="16.8958" fill="white"/>
</clipPath>
</defs>
</svg>
