<?xml version="1.0" encoding="UTF-8"?><svg id="Ebene_1" xmlns="http://www.w3.org/2000/svg" width="99" height="14" viewBox="0 0 99.85 14.27"><defs><style>.cls-1{fill:#fff;}</style></defs><path class="cls-1" d="m21.02,14.02V0h2.23v11.94h5.65v2.08h-7.88Z"/><path class="cls-1" d="m32.94,2.06h-2.23V0h2.23v2.06Zm-.04,11.96h-2.15V3.54h2.15v10.48Z"/><path class="cls-1" d="m46.29,8.78c0,3.14-2.27,5.49-5.45,5.49-1.47,0-2.76-.54-3.71-1.44l-.37,1.18h-1.54V0h2.15v4.51c.91-.78,2.12-1.22,3.45-1.22,3.18,0,5.45,2.33,5.45,5.49Zm-2.21,0c0-1.98-1.44-3.43-3.41-3.43s-3.43,1.47-3.43,3.43,1.46,3.43,3.43,3.43,3.41-1.47,3.41-3.43Z"/><path class="cls-1" d="m58.27,9.51h-8.5c.25,1.69,1.47,2.74,3.2,2.74,1.24,0,2.27-.58,2.81-1.53h2.27c-.83,2.21-2.76,3.55-5.08,3.55-3.07,0-5.39-2.37-5.39-5.49s2.33-5.49,5.39-5.49,5.34,2.46,5.34,5.51c0,.23-.02.49-.04.72Zm-8.46-1.75h6.35c-.39-1.59-1.59-2.54-3.18-2.54s-2.79.97-3.16,2.54Z"/><path class="cls-1" d="m65.1,5.52c-1.78,0-2.68,1.01-2.68,2.91v5.59h-2.15V3.54h1.36l.46,1.44c.76-1.01,1.78-1.49,3.2-1.49h.93v2.04h-1.13Z"/><path class="cls-1" d="m73.15,12.06c-1.28,0-1.96-.7-1.96-1.94v-4.6h3.09v-1.84h-3.1V1.38l-4.14,4.14h2v4.77c0,2.31,1.42,3.73,3.71,3.73h1.59v-1.96h-1.18Z"/><path class="cls-1" d="m86.22,9.51h-8.5c.25,1.69,1.47,2.74,3.2,2.74,1.24,0,2.27-.58,2.81-1.53h2.27c-.83,2.21-2.76,3.55-5.08,3.55-3.07,0-5.39-2.37-5.39-5.49s2.33-5.49,5.39-5.49,5.34,2.46,5.34,5.51c0,.23-.02.49-.04.72Zm-8.46-1.75h6.35c-.39-1.59-1.59-2.54-3.18-2.54s-2.79.97-3.16,2.54Z"/><path class="cls-1" d="m88.62,14.02h-2.37l3.73-5.41-3.43-5.06h2.41l2.33,3.53,2.39-3.53h2.37l-3.49,4.95,3.76,5.53h-2.43l-2.62-4-2.64,4Z"/><path class="cls-1" d="m97.05.3h-.68v1.75h-.33V.3h-.73v-.3h1.75v.3Zm1.49,1.75h-.07l-.73-1.53-.26,1.53h-.32l.35-2.06h.29l.71,1.51.71-1.51h.3l.35,2.06h-.32l-.26-1.53-.72,1.53Z"/><path class="cls-1" d="m14.02,2.39v1.48l-3.66,3.66h-6.27S0,11.62,0,11.62v-1.48l3.66-3.66h6.27l4.09-4.09Z"/><path class="cls-1" d="m11.06,9.22h-6.27S0,14.02,0,14.02h14.02v-7.75l-2.96,2.96Z"/><path class="cls-1" d="m2.96,4.79h6.27L14.02,0h0s-14.02,0-14.02,0v7.75l2.96-2.96Z"/></svg>
