<svg width="148" height="22" viewBox="0 0 148 22" fill="none" xmlns="http://www.w3.org/2000/svg">
<path d="M20.2714 17.074C19.8975 18.2846 20.1052 19.6205 21.476 19.6205H21.6837V21.4991H14.5804V19.6205C15.5774 19.537 16.3667 18.7021 16.9067 17.074L22.4315 0.041748H28.0809L33.1487 17.074C33.6472 18.7021 34.6026 19.537 35.4749 19.6205V21.4991H26.7516V19.6205H26.9593C28.3301 19.6205 28.5378 18.2846 28.2055 17.074L27.6655 15.1954H20.8945L20.2714 17.074ZM24.3838 3.9241L21.7668 12.2732H26.7931L24.3838 3.9241Z" fill="white"/>
<path fill-rule="evenodd" clip-rule="evenodd" d="M75.6439 17.074C75.2701 18.2846 75.4778 19.6205 76.8486 19.6205H77.0563V21.4991H69.953V19.6205C70.9499 19.537 71.7392 18.6603 72.2792 17.074L76.3916 4.3833C76.8901 2.79696 76.267 1.87856 74.8962 1.87856H74.6054V0H83.4534L88.5212 17.0323C89.0197 18.6603 89.9751 19.4953 90.8475 19.5787V21.4573H82.1657V19.5787H82.3734C83.7442 19.5787 83.9519 18.2429 83.6195 17.0323L83.0795 15.1537H76.3085L75.6439 17.074ZM79.7564 3.9241L77.1393 12.2732H82.1657L79.7564 3.9241Z" fill="white"/>
<path fill-rule="evenodd" clip-rule="evenodd" d="M55.8294 19.6622H56.2033C57.2833 19.6622 57.6572 18.8691 57.6572 17.241V4.34156C57.6572 2.71348 57.2418 1.92031 56.2033 1.92031H55.8294V0.041748H64.2205V1.92031H63.8466C62.7666 1.92031 62.3927 2.71348 62.3927 4.34156V18.5769H64.0958C65.8821 18.5769 67.1283 17.7002 67.1283 16.0721V15.8634H69.1222V21.5408H55.8294V19.6622Z" fill="white"/>
<path fill-rule="evenodd" clip-rule="evenodd" d="M123.041 18.6603C124.619 18.6603 125.533 17.8254 125.533 16.4061V16.1556H127.527V21.5408H113.071V19.6622H113.445C114.525 19.6622 114.899 18.8691 114.899 17.241V4.34156C114.899 2.71348 114.484 1.92031 113.445 1.92031H113.071V0.041748H127.402V5.25997H125.409V5.17647C125.409 3.71537 124.495 2.9222 122.916 2.9222H119.593V8.93359H124.245V12.1063H119.593V18.7021L123.041 18.6603Z" fill="white"/>
<path fill-rule="evenodd" clip-rule="evenodd" d="M36.7211 4.34156C36.7211 2.71348 36.3058 1.92031 35.2673 1.92031H34.8934V0.041748H43.326V1.92031H42.9521C41.8721 1.92031 41.4982 2.71348 41.4982 4.34156V14.6528C41.4982 16.907 43.1183 18.4099 45.2783 18.4099C47.4384 18.4099 49.0585 16.8653 49.0585 14.6528V4.34156C49.0585 2.71348 48.6431 1.92031 47.6046 1.92031H47.2307V0.041748H54.2509V1.92031H53.8771C52.797 1.92031 52.4232 2.71348 52.4232 4.34156V14.6528C52.4232 18.9943 48.9338 22 44.6137 22C40.2936 22 36.7627 19.3283 36.7627 14.6528L36.7211 4.34156Z" fill="white"/>
<path fill-rule="evenodd" clip-rule="evenodd" d="M6.4802 10.5617H7.64332C10.1772 10.5617 11.3819 8.47439 11.3819 6.67932C11.3819 4.84251 10.1772 2.79697 7.64332 2.79697H6.4802V10.5617ZM7.93409 19.6622H8.30795V21.5408H0V19.6622H0.373858C1.45389 19.6622 1.82775 18.8691 1.82775 17.241V4.34156C1.82775 2.71348 1.41235 1.92031 0.373858 1.92031H0V0.041748H8.88951C14.2066 0.041748 16.242 3.29792 16.242 6.67932C16.242 10.0607 14.2066 13.3169 8.88951 13.3169H6.4802V17.241C6.4802 18.8691 6.8956 19.6622 7.93409 19.6622V19.6622Z" fill="white"/>
<path fill-rule="evenodd" clip-rule="evenodd" d="M138.369 0.041748C143.728 0.041748 145.846 3.08919 145.846 6.47059C145.846 8.89185 144.517 11.0209 141.983 12.0228L144.725 17.074C145.846 19.1195 146.594 19.6622 147.757 19.6622H147.84V21.5408H141.817L137.33 12.8159H136.126V17.241C136.126 18.8691 136.541 19.6622 137.58 19.6622H137.954V21.5408H129.687V19.6622H130.061C131.141 19.6622 131.515 18.8691 131.515 17.241V4.50854C131.515 2.88046 131.099 1.92031 130.061 1.92031H129.687V0.041748H138.369ZM137.247 10.1442C139.823 10.1442 140.986 8.26566 140.986 6.47059C140.986 4.67553 139.781 2.79697 137.247 2.79697H136.126V10.1442H137.247Z" fill="white"/>
<path d="M106.093 14.0683V4.34156C106.093 2.71348 105.677 1.92031 104.639 1.92031H104.265V0.041748H111.077V1.92031H110.703C109.623 1.92031 109.25 2.71348 109.25 4.34156V21.5408H105.22L96.5384 7.13852V17.2827C96.5384 18.9108 96.9538 19.704 97.9923 19.704H98.3661V21.5825H91.5536V19.704H91.9275C93.0075 19.704 93.3814 18.9108 93.3814 17.2827V4.38331C93.3814 2.75522 92.966 1.96205 91.9275 1.96205H91.5536V0.0834931H97.66L106.093 14.0683Z" fill="white"/>
</svg>
