<?xml version="1.0" encoding="UTF-8"?><svg id="Ebene_1" xmlns="http://www.w3.org/2000/svg" width="83" height="24" viewBox="0 0 83.75 24.81"><defs><style>.cls-1,.cls-2{fill:#fff;}.cls-2{fill-rule:evenodd;}</style></defs><path class="cls-1" d="m47.69,13.74v-5.34c0-1.63-.06-2.12-.38-2.72-.65-1.09-2.02-1.69-4.08-1.69-1.74,0-3.05.44-3.76,1.31-.6.71-.82,1.53-.82,3.05v.22h3.16v-.16c0-1.69.54-1.96,1.42-1.96.82,0,1.25.38,1.25,1.31,0,.98,0,1.09-2.4,1.63-1.53.33-2.34.76-2.83,1.25-.65.65-.93,1.58-.93,2.83,0,2.4,1.2,3.65,3.32,3.65,1.31,0,2.23-.44,2.89-1.42.06.33.11.71.22.98l.06.11h3.43l-.11-.27c-.38-.55-.43-1.31-.43-2.78Zm-3.32-1.53c0,.98-.08,1.27-.27,1.58-.24.4-.76.65-1.31.65-.76,0-1.14-.54-1.14-1.47,0-1.31.55-1.45,1.55-1.88.25-.11,1.17-.46,1.17-.46v1.58h0Z"/><path class="cls-1" d="m83.53,16.52c-.27-.54-.33-1.31-.33-2.83v-5.34c0-1.63-.06-2.12-.38-2.72-.65-1.09-1.96-1.69-3.92-1.69-1.69,0-2.94.44-3.65,1.36-.6.71-.82,1.53-.82,3.05v.16h3.05v-.17c0-1.69.49-1.96,1.36-1.96.82,0,1.25.38,1.25,1.31,0,.98,0,1.09-2.29,1.63-1.47.33-2.29.76-2.78,1.25-.6.65-.93,1.58-.93,2.83,0,2.4,1.14,3.65,3.21,3.65,1.25,0,2.18-.44,2.83-1.36.06.33.11.71.22.98l.06.11h3.32l-.22-.27Zm-3.54-4.3c0,.98-.08,1.27-.27,1.58-.24.4-.76.65-1.25.65-.71,0-1.09-.54-1.09-1.47,0-1.4.66-1.47,1.66-1.91.26-.12,1.07-.43,1.07-.43l-.11,1.58h0Z"/><path class="cls-1" d="m32.6,6.77c-1.47-.65-1.96-1.2-1.96-2.34s.49-1.74,1.42-1.74c1.2,0,1.42.87,1.42,2.23v.16h3.11v-.16c0-1.69-.33-2.89-1.14-3.7-.76-.82-1.85-1.2-3.38-1.2-2.99,0-4.74,1.8-4.74,4.85,0,2.23.93,3.7,2.99,4.68q2.34,1.03,2.67,1.36c.44.38.65.87.65,1.63,0,1.25-.6,1.96-1.69,1.96-.76,0-1.14-.27-1.42-.98-.16-.38-.22-.82-.22-1.85v-.16h-3.16v.38c0,3.59,1.42,5.17,4.68,5.17,3.43,0,5.07-1.63,5.07-5.07,0-1.47-.27-2.51-1.03-3.32-.44-.54-1.09-.98-3.27-1.91Z"/><path class="cls-1" d="m56.46,10.03c-.54-.33-1.25-.65-2.89-1.2-1.25-.38-1.42-.76-1.42-1.42,0-.71.44-1.09,1.25-1.09,1.03,0,1.2.49,1.2,1.63v.16h3.05v-.16c0-1.09-.11-1.69-.33-2.18-.6-1.2-1.96-1.8-3.87-1.8-2.83,0-4.41,1.42-4.41,3.7,0,1.96.82,2.99,3.05,3.76q1.85.65,2.18.87c.27.27.49.6.49,1.03,0,.82-.49,1.31-1.36,1.31s-1.42-.27-1.42-1.96h-3.05v.27c0,2.83,1.42,4.14,4.36,4.14s4.68-1.47,4.68-4.08c-.06-1.36-.6-2.45-1.53-3Z"/><polygon class="cls-1" points="68.28 4.42 64.52 4.42 62.45 8.24 62.45 .34 59.08 .34 59.08 16.73 62.45 16.73 62.45 13.03 62.78 12.43 64.79 16.73 68.39 16.73 65.17 9.11 68.28 4.42"/><rect class="cls-1" x="69.15" y=".34" width="3.38" height="3.11"/><rect class="cls-1" x="69.15" y="4.42" width="3.38" height="12.31"/><polygon class="cls-2" points="28.27 24.72 28.27 21.89 29.05 24.72 29.87 24.72 30.66 21.95 30.66 24.72 31.44 24.72 31.44 20.92 30.28 20.92 29.47 23.75 28.67 20.92 27.5 20.92 27.5 24.72 28.27 24.72"/><rect class="cls-1" x="32.98" y="20.92" width=".83" height="3.8"/><polygon class="cls-2" points="36.13 24.72 36.13 22.24 37.53 24.72 38.38 24.72 38.38 20.92 37.62 20.92 37.62 23.39 36.2 20.92 35.36 20.92 35.36 24.72 36.13 24.72"/><polygon class="cls-2" points="42.64 24.72 42.64 23.98 40.76 23.98 40.76 23.15 42.59 23.15 42.59 22.41 40.76 22.41 40.76 21.66 42.64 21.66 42.64 20.92 39.93 20.92 39.93 24.72 42.64 24.72"/><path class="cls-2" d="m45.42,22.55h-.49v-.89h.45c.62,0,.92-.05.92.44,0,.48-.25.45-.88.45Zm-.49,2.18v-1.44h.56c.41,0,.64,0,.72.08.09.09.09.15.09.42v.94h.81v-.93c0-.31.04-.81-.37-.93.29-.12.37-.39.37-.85,0-1.06-.71-1.1-1.57-1.1h-1.45v3.8h.84Z"/><path class="cls-2" d="m50.12,21.94l.41,1.19h-.83l.42-1.19Zm-.98,2.78l.31-.87h1.35l.31.87h.88l-1.44-3.8h-.84l-1.45,3.8h.88Z"/><polygon class="cls-2" points="55.83 24.72 55.83 23.98 53.99 23.98 53.99 20.92 53.15 20.92 53.15 24.72 55.83 24.72"/><polygon class="cls-2" points="58.48 24.72 59.17 21.81 59.85 24.72 60.73 24.72 61.59 20.92 60.81 20.92 60.29 23.58 59.62 20.92 58.74 20.92 58.1 23.58 57.57 20.92 56.76 20.92 57.61 24.72 58.48 24.72"/><path class="cls-2" d="m64.39,21.94l.41,1.19h-.83l.42-1.19Zm-.98,2.78l.31-.87h1.35l.31.87h.88l-1.44-3.8h-.84l-1.45,3.8h.88Z"/><path class="cls-2" d="m70.47,23.53c0-1.11-.78-1.1-1.58-1.14-.44-.02-.74-.01-.74-.38,0-.24.09-.4.7-.4.37,0,.78.05.78.43h.82c0-.9-.61-1.17-1.59-1.17s-1.54.25-1.54,1.18c0,1.05.77,1.08,1.53,1.13.49.03.78,0,.78.41,0,.34-.3.41-.77.41-.41,0-.74-.08-.74-.41h-.83c0,.92.62,1.17,1.6,1.17,1.05,0,1.58-.39,1.58-1.23Z"/><path class="cls-2" d="m74.95,23.53c0-1.11-.78-1.1-1.58-1.14-.44-.02-.74-.01-.74-.38,0-.24.09-.4.7-.4.37,0,.78.05.78.43h.82c0-.9-.61-1.17-1.59-1.17s-1.54.25-1.54,1.18c0,1.05.77,1.08,1.53,1.13.49.03.78,0,.78.41,0,.34-.3.41-.77.41-.41,0-.74-.08-.74-.41h-.83c0,.92.62,1.17,1.6,1.17,1.05,0,1.58-.39,1.58-1.23Z"/><polygon class="cls-2" points="79.11 24.72 79.11 23.98 77.23 23.98 77.23 23.15 79.05 23.15 79.05 22.41 77.23 22.41 77.23 21.66 79.11 21.66 79.11 20.92 76.39 20.92 76.39 24.72 79.11 24.72"/><path class="cls-2" d="m81.89,22.55h-.49v-.89h.45c.62,0,.92-.05.92.44,0,.48-.24.45-.88.45Zm-.49,2.18v-1.44h.56c.41,0,.64,0,.72.08.09.09.09.15.09.42v.94h.81v-.93c0-.31.04-.81-.37-.93.29-.12.37-.39.37-.85,0-1.06-.71-1.1-1.57-1.1h-1.45v3.8h.84Z"/><path id="Fläche_Schwarz" class="cls-2" d="m0,0v24.81h24.81V0H0Zm12.41,23.41c-6.08,0-11.01-4.93-11.01-11,0-6.08,4.93-11.01,11.01-11.01s11.01,4.93,11.01,11.01c0,6.07-4.93,11-11.01,11Z"/><path id="Lidl" class="cls-2" d="m17.24,10.36h3.46v.75h-.58v2.42l2.01-1.12v2.05h-4.89v-.75h.58v-2.59h-.58v-.75h0Zm-7.75.14c.68,0,1.23-.55,1.23-1.23s-.55-1.23-1.23-1.23-1.23.55-1.23,1.23c0,.68.55,1.23,1.23,1.23Zm5.82,3.96h-3.3v-.75h.58v-1.11l-3.13,3.13-.38-.38.58-.58-1.56-1.57-.56.57v.69H2.65v-.75h.58v-2.6h-.58v-.75h3.46v.75h-.58v2.41l2-1.12v.61l2.24-2.24,1.94,1.94.87-.87v-.73h-.58v-.75h3.3c2.46,0,2.44,4.09,0,4.09Zm-.49-2.82h-.14v1.54h.16c.7,0,.7-1.54-.02-1.54Z"/></svg>
