<svg height="20" width="20" viewBox="0 0 40 40" xmlns="http://www.w3.org/2000/svg" fill="#dc052d" stroke='#dc052d'>
  <path fill-rule="evenodd" clip-rule="evenodd" d="M3 8.25C2.79018 8.25 2.58996 8.33789 2.44794 8.49234C2.30591 8.64678 2.23508 8.85366 2.25263 9.06274L4.05773 30.5647C4.35128 34.0614 7.27506 36.75 10.7841 36.75H29.2159C32.7249 36.75 35.6487 34.0614 35.9423 30.5647L37.7474 9.06274C37.7649 8.85366 37.6941 8.64678 37.5521 8.49234C37.41 8.33789 37.2098 8.25 37 8.25H3ZM5.53659 30.25L3.8156 9.75H36.1844L34.4475 30.4392C34.2192 33.1589 31.9452 35.25 29.2159 35.25H10.7841C8.51344 35.25 6.55788 33.8026 5.83331 31.75L28 31.75V30.25L5.53659 30.25ZM24 13.75H16V12.25H24V13.75Z" fill="currentColor"></path><path fill-rule="evenodd" clip-rule="evenodd" d="M12.75 9.33333C12.75 5.11602 16.0245 1.75 20 1.75C23.9755 1.75 27.25 5.11602 27.25 9.33333V13.3535C26.0957 13.68 25.25 14.7412 25.25 16C25.25 17.5188 26.4812 18.75 28 18.75C29.5188 18.75 30.75 17.5188 30.75 16C30.75 14.7412 29.9043 13.68 28.75 13.3535V9.33333C28.75 4.3459 24.8611 0.25 20 0.25C15.1389 0.25 11.25 4.3459 11.25 9.33333V13.3535C10.0957 13.68 9.25 14.7412 9.25 16C9.25 17.5188 10.4812 18.75 12 18.75C13.5188 18.75 14.75 17.5188 14.75 16C14.75 14.7412 13.9043 13.68 12.75 13.3535V9.33333ZM11.25 14.9999V16H12.75V14.9999C13.0536 15.228 13.25 15.591 13.25 16C13.25 16.6904 12.6904 17.25 12 17.25C11.3096 17.25 10.75 16.6904 10.75 16C10.75 15.591 10.9464 15.228 11.25 14.9999ZM27.25 14.9999V16H28.75V14.9999C29.0536 15.228 29.25 15.591 29.25 16C29.25 16.6904 28.6904 17.25 28 17.25C27.3096 17.25 26.75 16.6904 26.75 16C26.75 15.591 26.9464 15.228 27.25 14.9999Z" fill="currentColor"></path>
</svg>
