<svg width="44" height="24" viewBox="0 0 44 25" fill="none" xmlns="http://www.w3.org/2000/svg">
<path d="M41.3544 25H2.64557C1.25316 25 0 23.75 0 22.3611V2.63889C0 1.25 1.25316 0 2.64557 0H41.3544C42.7468 0 44 1.25 44 2.63889V22.2222C44 23.75 42.7468 25 41.3544 25Z" fill="white"/>
<path d="M18.6581 15.2778H15.5948V12.2222H18.6581V15.2778V15.2778ZM15.4556 5.13889V10.4167H16.4302V10.2778C16.4302 7.77778 17.8227 6.25 20.4682 6.25H20.6075V17.3611C20.6075 18.8889 20.0505 19.5833 18.3796 19.5833H17.9619V20.6944H26.0378V19.4444H25.6201C24.0885 19.4444 23.3923 18.8889 23.3923 17.2222V6.11111H23.5315C26.1771 6.25 27.5695 7.77778 27.5695 10.2778V10.4167H28.5442V5.13889H15.4556ZM25.4809 15.2778H28.5442V12.2222H25.4809V15.2778Z" fill="#E20074"/>
</svg>
