<?xml version="1.0" encoding="utf-8"?>
<!-- Generator: Adobe Illustrator 27.0.0, SVG Export Plug-In . SVG Version: 6.00 Build 0)  -->
<svg version="1.1" id="Ebene_1" xmlns="http://www.w3.org/2000/svg" xmlns:xlink="http://www.w3.org/1999/xlink" x="0px" y="0px"
	width="147" height="31" viewBox="0 0 147.9 31.6" style="enable-background:new 0 0 147.9 31.6;" xml:space="preserve">
<style type="text/css">
	.st0{fill:#FFFFFF;}
</style>
<g id="layer1_00000092413896259039478100000006121832312079688383_" transform="translate(106.80193,-432.76044)">
	<g id="path137_00000038384086092011242820000000257283767323797693_">
		<path class="st0" d="M-78.3,454.2v-14h-5.2v14H-78.3"/>
	</g>
	<g id="path139_00000180364827581323161140000017902723465986364044_">
		<path class="st0" d="M-78.1,454.3h-5.5v-14.3h5.5V454.3z M-83.3,454h4.9v-13.7h-4.9V454z"/>
	</g>
	<g id="path141_00000025411605219117707990000008908540942112945837_">
		<path class="st0" d="M-18.4,440.2l-7,0l-2.2,5.8c-0.2,0.5-0.2,1.4-0.2,1.4s-0.1-0.9-0.2-1.4l-2.1-5.8l-7,0l0,14l4.5,0v-8.3
			c0,0,0,0.5,0.2,0.9l3.2,7.4h3.1l3.2-7.5c0.2-0.4,0.2-0.9,0.2-0.9v8.5h4.5V440.2"/>
	</g>
	<g id="path143_00000153673601646150118880000008849232243493104560_">
		<path class="st0" d="M-37.3,454.3l0-14.3l7.2,0l2.2,5.9c0,0.1,0.1,0.2,0.1,0.4c0-0.1,0.1-0.3,0.1-0.4l2.2-5.9l7.3,0v14.3H-23v-7.4
			l-3.1,7.4h-3.3l-3.1-7.3v7.3L-37.3,454.3z M-29.2,454h2.9l3.1-7.5c0.2-0.4,0.2-0.9,0.2-0.9l0.3,0v8.3h4.2v-13.7l-6.8,0l-2.1,5.7
			c-0.2,0.5-0.2,1.3-0.2,1.4l-0.3,0c0,0-0.1-0.9-0.2-1.4l-2.1-5.7l-6.8,0l0,13.7l4.2,0v-8.2l0.3,0c0,0,0,0.5,0.2,0.9L-29.2,454z"/>
	</g>
	<g id="path145_00000133497918549645332600000000862906356508283815_">
		<path class="st0" d="M20.4,440.2h-4.9v7.7c0,0,0-0.5-0.3-0.9l-5.8-6.8H4.2v14h5.2v-7.7c0,0,0,0.5,0.3,0.9l5.6,6.8l5.1,0V440.2"/>
	</g>
	<g id="path147_00000030468212345213249940000002609776178677896884_">
		<path class="st0" d="M15.2,454.3l-5.7-6.9c0,0,0-0.1-0.1-0.1v6.9H4v-14.3h5.4l0,0l5.8,6.8c0,0,0.1,0.1,0.1,0.1v-7h5.2v14.3
			L15.2,454.3z M9.5,446.5c0,0,0,0.4,0.3,0.8l5.6,6.8l4.9,0v-13.7h-4.6v7.5l-0.3,0c0,0,0-0.4-0.3-0.8l-5.8-6.8h-5V454h4.9v-7.5
			L9.5,446.5z"/>
	</g>
	<g id="path149_00000058569179319675809780000004467482521706232452_">
		<path class="st0" d="M2.5,454.2l-7.1-14h-5.5l-7.1,14h4.7l0,0h0.7l1.3-2.6l6,0l1.3,2.6h0.2v0H2l0,0H2.5z M-9,448.1
			c0,0,1.3-2.5,1.5-2.9c0.2-0.4,0.2-0.9,0.2-0.9s0,0.5,0.2,0.9l1.5,2.9L-9,448.1"/>
	</g>
	<g id="path151_00000018227155108197539750000011881399052109572506_">
		<path class="st0" d="M2,454.3l-5.1,0l-1.3-2.6l-5.9,0l-1.3,2.6h-5.8l7.2-14.3h5.7l7.2,14.3L2,454.3z M-2.6,454l4.9,0l-6.9-13.7
			H-10l-6.9,13.7h5.2l1.3-2.6l6.2,0l1.3,2.6L-2.6,454z M-5.4,448.2l-3.8,0l1.6-3.1c0.2-0.4,0.2-0.9,0.2-0.9l0.3,0c0,0,0,0.5,0.2,0.9
			L-5.4,448.2z M-8.8,447.9l2.9,0l-1.4-2.7c0-0.1-0.1-0.1-0.1-0.2c0,0.1-0.1,0.1-0.1,0.2L-8.8,447.9z"/>
	</g>
	<g id="path153_00000061437110051460584820000008913354496431988151_">
		<path class="st0" d="M-68.6,450.4l0-1.9h7.8v-3.1h-7.8v-1.7h9.5v-3.4l-14.4,0v14h14.8v-3.7L-68.6,450.4"/>
	</g>
	<g id="path155_00000091709930779881793520000010639794352604154296_">
		<path class="st0" d="M-58.6,454.3h-15.1v-14.3l14.7,0v3.7h-9.5v1.5h7.8v3.4h-7.8l0,1.7l9.9,0V454.3z M-73.4,454h14.5v-3.4l-9.9,0
			l0-2.2h7.8v-2.9h-7.8v-2h9.5v-3.2l-14.2,0V454z"/>
	</g>
	<g id="path157_00000007408766103253784920000002588109508952866726_">
		<path class="st0" d="M-106.6,440.2l7.5,14h6l7.4-14h-5.8l-4.2,8.5c-0.2,0.4-0.2,0.9-0.2,0.9s0-0.5-0.2-0.9l-4.2-8.5L-106.6,440.2"
			/>
	</g>
	<g id="path159_00000049913516799849927870000013207770087961336215_">
		<path class="st0" d="M-93,454.3h-6.2l-7.6-14.3l6.6,0l4.2,8.6c0,0.1,0.1,0.2,0.1,0.2c0-0.1,0.1-0.1,0.1-0.2l4.2-8.6h6.2L-93,454.3
			z M-99,454.1h5.9l7.2-13.7h-5.5l-4.1,8.4c-0.2,0.4-0.2,0.9-0.2,0.9l-0.3,0c0,0,0-0.5-0.2-0.9l-4.1-8.4l-5.9,0L-99,454.1z"/>
	</g>
	<g id="path161_00000065791660422108433350000014299398738644025232_">
		<path class="st0" d="M-40.8,432.9l-11.5,0c0,0-4.5,0.1-4.5,4.6c0,4.6,4.5,4.5,4.5,4.5l6.8,0c0,0,0.9,0,0.9,0.9
			c0,0.8-0.9,0.8-0.9,0.8h-11v3.8l11.4,0c0,0,4.9,0.2,4.9-4.8c0-4.3-4.9-4.4-4.9-4.4h-6.5c0,0-1,0-1-0.8c0-0.8,1-0.8,1-0.8h10.7
			V432.9"/>
	</g>
	<g id="path163_00000127011958040244010520000009387733914179998083_">
		<path class="st0" d="M-45,447.6C-45,447.6-45.1,447.6-45,447.6l-11.6,0v-4.1h11.1c0.1,0,0.8,0,0.8-0.7c0-0.8-0.7-0.8-0.8-0.8
			l-6.8,0c-0.1,0-2.1,0-3.4-1.3c-0.8-0.8-1.2-1.9-1.2-3.3c0-2.4,1.3-3.5,2.3-4.1c1.1-0.6,2.3-0.6,2.3-0.6l11.6,0v4h-10.9
			c0,0-0.9,0-0.9,0.7c0,0.7,0.8,0.7,0.9,0.7h6.5c0.1,0,5,0.2,5,4.6c0,1.5-0.5,2.7-1.3,3.6C-42.7,447.6-44.6,447.6-45,447.6z
			 M-56.3,447.4l11.3,0c0,0,2.1,0.1,3.5-1.3c0.8-0.8,1.3-1.9,1.3-3.4c0-1.7-0.8-3-2.3-3.7c-1.2-0.5-2.4-0.6-2.4-0.6l-6.5,0
			c-0.4,0-1.1-0.2-1.1-1c0-0.7,0.7-0.9,1.1-0.9h10.6V433l-11.3,0c0,0-1.1,0-2.2,0.6c-1.4,0.7-2.2,2-2.2,3.8c0,1.3,0.4,2.4,1.1,3.1
			c1.3,1.2,3.2,1.2,3.2,1.2l6.8,0c0.4,0,1,0.2,1,1.1c0,0.8-0.7,1-1,1h-10.9V447.4z"/>
	</g>
	<g id="path165_00000074413690624514060830000000893676618575236490_">
		<path class="st0" d="M41.1,440.2h-4.9v7.7c0,0,0-0.5-0.3-0.9l-5.8-6.8h-5.2v14H30v-7.7c0,0,0,0.5,0.3,0.9l5.6,6.8l5.1,0V440.2"/>
	</g>
	<g id="path167_00000031924254321540234210000017064296575769089461_">
		<path class="st0" d="M35.9,454.3l-5.7-6.9c0,0,0-0.1-0.1-0.1v6.9h-5.5v-14.3h5.4l0,0l5.8,6.8c0,0,0.1,0.1,0.1,0.1v-7h5.2v14.3
			L35.9,454.3z M30.1,446.5c0,0,0,0.5,0.3,0.8L36,454l4.9,0v-13.7h-4.6v7.5l-0.3,0c0,0,0-0.4-0.3-0.8l-5.8-6.8h-5V454h4.9v-7.5
			L30.1,446.5z"/>
	</g>
	<g id="path169_00000041981002447280764350000011287437423782817160_">
		<path class="st0" d="M-40.8,449.6l-11.5,0c0,0-4.5,0.1-4.5,4.6c0,4.6,4.5,4.5,4.5,4.5l6.8,0c0,0,0.9,0,0.9,0.9
			c0,0.8-0.9,0.8-0.9,0.8h-11v3.8h11.4c0,0,4.9,0.2,4.9-4.8c0-4.3-4.9-4.4-4.9-4.4l-6.5,0c0,0-1,0-1-0.8c0-0.8,1-0.8,1-0.8l10.7,0
			V449.6"/>
	</g>
	<g id="path171_00000030475780580640073830000015872986774354156680_">
		<path class="st0" d="M-45,464.3C-45,464.3-45.1,464.3-45,464.3l-11.6,0v-4.1h11.1c0.1,0,0.8,0,0.8-0.7c0-0.8-0.7-0.8-0.8-0.8
			l-6.8,0c-0.1,0-2.1,0-3.4-1.3c-0.8-0.8-1.2-1.9-1.2-3.3c0-2.4,1.3-3.5,2.3-4.1c1.1-0.6,2.3-0.6,2.3-0.6l11.6,0v4l-10.9,0
			c0,0-0.9,0-0.9,0.7c0,0.7,0.8,0.7,0.9,0.7l6.5,0c0.1,0,5,0.2,5,4.6c0,1.5-0.5,2.7-1.3,3.6C-42.7,464.3-44.6,464.3-45,464.3z
			 M-56.3,464.1h11.3c0,0,2.1,0.1,3.5-1.3c0.8-0.8,1.3-1.9,1.3-3.4c0-1.7-0.8-3-2.3-3.7c-1.2-0.6-2.4-0.6-2.4-0.6l-6.5,0
			c-0.4,0-1.1-0.2-1.1-1c0-0.7,0.7-0.9,1.1-0.9l10.6,0v-3.5l-11.3,0c0,0-1.1,0-2.2,0.6c-1.4,0.7-2.2,2-2.2,3.8
			c0,1.3,0.4,2.4,1.1,3.1c1.3,1.2,3.2,1.2,3.2,1.2l6.8,0c0.4,0,1,0.2,1,1.1c0,0.8-0.7,1-1,1h-10.9V464.1z"/>
	</g>
</g>
</svg>
