<svg width="56" height="27" viewBox="0 0 56 27" fill="none" xmlns="http://www.w3.org/2000/svg">
<path fill-rule="evenodd" clip-rule="evenodd" d="M20.3575 10.22L18.6449 15.492C19.1713 15.685 19.7649 15.813 20.4237 15.813C21.0163 15.813 21.6099 15.685 22.1363 15.556L20.3575 10.221V10.22ZM33.3363 8.485H32.1501V12.728H33.3363C34.9175 12.728 36.2351 12.214 36.2351 10.542C36.2351 9 34.9827 8.485 33.3363 8.485ZM0 0V26.613H28.1324L55.6691 0H0ZM33.9299 16.392H32.1501V21.47H24.0474L23.2563 19.028C22.4 19.285 21.4113 19.478 20.4237 19.478C19.3699 19.478 18.3812 19.349 17.5249 19.028L16.6687 21.47H11.6612L12.1887 20.056L11.9901 20.249C10.7388 21.213 9.22371 21.727 7.24742 21.792H6.98269C4.74269 21.792 2.63505 21.213 0.790109 20.185L2.50371 16.906C4.34865 17.935 5.46865 18.192 7.04989 18.128C7.84 18.128 8.43258 17.999 8.82865 17.613C9.02618 17.356 9.15753 17.099 9.15753 16.778C9.15753 15.942 7.90516 15.556 6.39011 15.106C5.13876 14.721 3.75505 14.206 2.63505 13.435C1.31753 12.535 0.724945 11.378 0.724945 9.707C0.724945 8.55 1.18618 7.457 2.04247 6.621C3.22764 5.4 5.20495 4.693 7.51011 4.693C9.48742 4.693 11.9249 5.271 13.7037 6.107L11.7926 9.32C9.88247 8.42 8.89382 8.356 7.77382 8.291C6.12742 8.227 5.33629 8.741 5.27011 9.384C5.27011 10.156 6.85135 10.798 8.30124 11.248C10.5412 11.956 13.3738 12.855 13.8351 15.491L17.92 4.95H22.6637L27.4726 17.55V5.013H32.9402C38.2113 5.013 40.6499 6.813 40.6499 10.734C40.7151 14.334 38.2113 16.391 33.9299 16.391V16.392Z" fill="white"/>
</svg>
