<svg width="75" height="24" viewBox="0 0 75 24" fill="none" xmlns="http://www.w3.org/2000/svg">
<g clip-path="url(#clip0)">
<path fill-rule="evenodd" clip-rule="evenodd" d="M6.98054 1.25338C7.64921 1.03471 8.46518 1.1796 8.98566 1.54315C9.72753 1.9796 10.0989 2.85249 9.95072 3.72538C9.87662 5.03471 8.46518 5.9796 7.20373 5.76093C6.08958 5.61604 5.27271 4.59826 5.27271 3.50671C5.27271 2.48893 5.94138 1.54315 6.98054 1.25249V1.25338ZM1.18837 7.43471C1.26247 7.14315 1.55885 6.85249 1.85705 6.92538H14.7019C14.9992 6.85249 15.2224 7.14315 15.1474 7.43471L14.4787 10.2703C14.4055 10.5618 14.1823 10.8525 13.8851 10.8525H8.31699C7.9465 12.2347 7.64831 13.6889 7.35192 15.0712C7.27692 15.5067 7.05373 16.016 7.27693 16.4525C7.42602 16.7432 7.79741 16.8889 8.09379 16.8889H12.6236C12.8468 16.8889 12.995 17.1067 12.9209 17.3245C12.7727 18.1245 12.5504 18.9245 12.4013 19.7983C12.3272 20.0889 12.104 20.3067 11.8067 20.3067H7.05373C6.01458 20.3067 4.97542 20.0889 4.15855 19.4347C3.48988 18.9254 3.11939 18.1254 3.04439 17.2525C2.82211 16.1618 3.19349 15.1432 3.41578 14.1254C3.63897 13.0347 3.93536 11.9432 4.15855 10.7796H0.891082C0.668792 10.7796 0.593793 10.4889 0.668792 10.2712C0.742889 9.32538 0.965178 8.3796 1.18837 7.43471ZM17.8221 6.99827C18.0444 6.92538 18.2676 6.92538 18.4908 6.92538H21.2378C21.461 6.92538 21.6082 6.99827 21.6832 7.21604C21.6832 7.58049 21.5351 7.87115 21.461 8.23471C20.5691 12.016 19.7531 15.8703 18.8613 19.6525C18.7872 19.9432 18.5649 20.2347 18.2676 20.2347H15.0742C14.7769 20.3067 14.6287 19.8703 14.7769 19.6525C15.6688 15.5796 16.6339 11.5067 17.5248 7.43471C17.5248 7.28893 17.5989 7.07027 17.8221 6.99827ZM37.7233 10.5618C37.7233 9.54315 37.5001 8.52538 36.6833 7.79738C36.0146 7.14315 35.0495 6.92538 34.1585 6.92538H28.5146C27.1781 6.92538 25.7676 7.28893 24.7284 8.23471C23.5393 9.25249 23.0206 10.8525 22.6483 12.3067C21.7573 16.1618 20.8664 20.016 20.0495 23.7983C19.9754 24.016 20.1977 24.3067 20.495 24.2338H23.6143C23.9107 24.2338 24.2079 24.016 24.2079 23.7254C24.5052 22.5609 24.7275 21.3254 25.0248 20.1609C26.7326 20.2347 28.5146 20.1609 30.2233 20.2347C31.4857 20.2347 32.8221 20.2347 34.0095 19.7254C34.9013 19.3609 35.6441 18.5609 36.0896 17.6889C36.8314 16.3067 37.0546 14.7796 37.426 13.2534C37.5001 12.3796 37.7965 11.5067 37.7233 10.5618ZM33.8613 12.2347C33.639 13.1067 33.4158 13.9796 33.2676 14.8525C33.1185 15.2889 32.9703 15.7983 32.5248 16.0889C32.0793 16.3796 31.4857 16.3796 30.8911 16.4534H26.8826C26.5845 16.4534 26.214 16.4534 25.9908 16.1618C25.6944 15.8712 25.7685 15.4347 25.8426 15.0712C26.0658 14.1254 26.2881 13.1796 26.4363 12.3067C26.5113 11.7983 26.8826 11.3618 27.3281 11.1432C27.8477 10.8525 28.4414 10.8525 29.036 10.8525H32.6739C33.0453 10.8525 33.4908 10.8525 33.7131 11.1432C34.0113 11.4347 33.9363 11.8712 33.8622 12.2347H33.8613ZM40.6935 6.99827C40.9158 6.92538 41.2131 6.92538 41.5104 6.92538H44.1091C44.4064 6.92538 44.5546 7.21604 44.4796 7.43471C43.5896 11.5067 42.6236 15.6525 41.7326 19.7254C41.6585 20.016 41.4354 20.3067 41.064 20.3067H38.0197C37.7233 20.3796 37.5001 20.0889 37.5742 19.8712C38.4652 15.7983 39.4311 11.6525 40.3212 7.5796C40.3962 7.28893 40.4703 7.07115 40.6935 6.99827ZM50.1977 7.07115C50.7182 6.99826 51.1637 6.99827 51.6832 6.99827H58.886C59.1832 6.92538 59.4064 7.21604 59.2573 7.43382C59.0351 8.3796 58.8119 9.32538 58.5146 10.2712C58.4405 10.5618 58.2182 10.8525 57.8459 10.8525H51.3128C50.6441 10.8525 49.9013 10.9254 49.3817 11.4347C49.0104 11.7983 48.9354 12.3796 48.7872 12.8889C48.639 13.6889 48.4167 14.4889 48.2676 15.3618C48.1935 15.7254 48.2676 16.1618 48.6381 16.3796C49.0104 16.5254 49.3817 16.4525 49.8272 16.4525H56.6585C56.9558 16.4525 57.1781 16.6712 57.029 16.9618C56.8067 17.9067 56.6586 18.8525 56.4354 19.7974C56.3613 20.0889 56.139 20.3796 55.8417 20.3067H48.1935C47.1543 20.3067 45.9652 20.0889 45.2233 19.2889C44.4805 18.416 44.3314 17.2534 44.4805 16.1618C44.6287 15.1432 44.926 14.1974 45.1492 13.1796C45.4456 11.6525 45.8911 10.0525 46.9311 8.81604C47.748 7.72538 48.9354 7.21604 50.1977 7.07115ZM74.7769 10.416C74.7769 9.54315 74.5546 8.59827 73.8859 7.94315C73.2173 7.28893 72.2522 6.99827 71.3613 6.99827H65.9405C65.495 6.99827 65.0495 6.99826 64.604 7.07115C63.0444 7.28893 61.6338 8.16182 60.8911 9.47115C60.0001 10.8525 59.7769 12.4525 59.4064 14.0525C59.1832 15.1432 58.8119 16.3067 58.961 17.4712C59.035 18.3432 59.4805 19.216 60.2233 19.7254C60.9652 20.2347 61.9311 20.3796 62.8962 20.3796H68.6884C70.0257 20.3067 71.5104 19.944 72.4013 18.9254C73.5896 17.5432 73.886 15.7983 74.2573 14.0525C74.4064 12.8169 74.7769 11.6525 74.7769 10.4169V10.416ZM70.8417 12.016C70.6185 12.9618 70.3962 13.8347 70.173 14.7805C70.0248 15.216 69.8766 15.6525 69.5043 16.016C69.0597 16.3805 68.3911 16.3805 67.8715 16.4525H63.8613C63.5649 16.4525 63.1926 16.4525 62.9703 16.1618C62.673 15.8712 62.748 15.4347 62.8221 15.0712L63.4908 12.2347C63.639 11.6525 64.0844 11.216 64.604 10.9983C65.0495 10.8525 65.5691 10.8525 66.0146 10.7796H69.6534C70.0248 10.7796 70.3962 10.7796 70.6185 11.0712C70.9167 11.2889 70.9167 11.7254 70.8417 12.016Z" fill="white"/>
</g>
<defs>
<clipPath id="clip0">
<rect width="75" height="24" fill="white"/>
</clipPath>
</defs>
</svg>
